<svg xmlns="http://www.w3.org/2000/svg" width="161" height="38" viewBox="0 0 161 38" fill="none"><g id="Logo" clip-path="url(#clip0_15510_3930)"><g id="Graphic"><mask id="mask0_15510_3930" style="mask-type:luminance" maskUnits="userSpaceOnUse" x="0" y="0" width="37" height="38"><g id="clippath"><path id="Vector" d="M30.1785 16.8467C29.5326 17.7207 28.8234 18.5947 28.0762 19.456L12.7021 26.3213V27.968L36.7891 17.214V13.8827L30.1785 16.834V16.8467ZM33.6611 11.286C33.2938 12.008 32.8886 12.7553 32.4453 13.5027L12.7147 22.3187V23.9653L36.8018 13.1987V9.86733L33.6611 11.2733V11.286ZM0 0.215332V37.62H36.7891V25.8907L12.7021 36.6573V35.9733L36.7891 25.2193V21.888L12.7021 32.6547V31.9707L36.7891 21.2167V17.8853L24.0871 23.56C16.096 30.932 7.38315 34.2253 4.06517 30.9067C0.519227 27.3727 4.44509 17.6827 12.8287 9.25933C17.1471 4.94 21.8075 1.77333 25.8094 0.215332H0ZM34.193 0.215332C34.269 0.278665 34.345 0.341999 34.4083 0.417999C36.0293 2.02667 36.0926 4.92733 34.8768 8.398L12.6894 18.316V19.9627L36.7891 9.196V0.215332H34.193Z" fill="white"></path></g></mask><g mask="url(#mask0_15510_3930)"><g id="Group"><path id="Vector_2" d="M18.3988 -18.1749L-18.7012 18.9326L18.3988 56.0402L55.4987 18.9326L18.3988 -18.1749Z" fill="url(#paint0_linear_15510_3930)"></path></g></g></g><g id="Text"><mask id="mask1_15510_3930" style="mask-type:luminance" maskUnits="userSpaceOnUse" x="0" y="0" width="163" height="38"><g id="clippath-1"><path id="Vector_3" d="M162.1 0H0V38H162.1V0Z" fill="white"></path></g></mask><g mask="url(#mask1_15510_3930)"><g id="Group_2"><path id="Vector_4" d="M46.8826 37.6324C45.3122 37.6324 43.8559 37.2271 42.5641 36.4291L42.4122 36.3404L43.21 34.7951L43.3873 34.9091C44.4257 35.5804 45.6668 35.9478 46.8699 35.9478C48.9341 35.9478 50.0739 34.8584 50.0739 32.8824V31.8944C49.1494 33.1104 47.9843 33.7184 46.5913 33.7184C44.3244 33.7184 42.0322 31.8944 42.0322 28.4111V28.3351C42.0322 24.8391 44.3371 23.0024 46.6166 23.0024C47.997 23.0024 49.1621 23.5978 50.0739 24.7631V23.2178H51.9862V32.8444C51.9862 34.3391 51.5556 35.5171 50.7198 36.3404C49.8333 37.2018 48.5416 37.6451 46.8952 37.6451M46.9459 24.7251C45.1729 24.7251 43.9698 26.1691 43.9698 28.3224C43.9698 30.4758 45.1856 31.9704 46.9459 31.9704C48.5036 31.9704 50.1119 30.6278 50.1119 28.3731V28.3098C50.1119 25.9791 48.4782 24.7124 46.9459 24.7124" fill="#005596"></path><path id="Vector_5" d="M57.0777 34.6812C55.216 34.6812 53.3291 33.4525 53.3291 31.1092V31.0205C53.3291 28.7405 54.9754 27.3218 57.6096 27.3218C58.7367 27.3218 59.5598 27.4992 60.2817 27.7018V27.3092C60.2817 25.6878 59.3445 24.8012 57.6349 24.8012C56.7231 24.8012 55.7859 25.0418 54.8868 25.5105L54.6968 25.5992L54.0636 24.0032L54.2282 23.9272C55.1527 23.4838 56.3052 23.0278 57.8122 23.0278C59.1926 23.0278 60.2817 23.4078 61.0668 24.1678C61.8014 24.8898 62.1939 25.9538 62.1939 27.2458V34.4278H60.2943V33.2245C59.6738 33.9592 58.6733 34.6558 57.0903 34.6558M57.7995 28.8798C56.1912 28.8798 55.2414 29.6652 55.2414 30.9698V31.0332C55.2414 32.2238 56.1405 33.0598 57.4196 33.0598C58.2428 33.0598 58.9519 32.7938 59.4838 32.3252C60.0157 31.8438 60.307 31.1978 60.307 30.4885V29.2598C59.5472 29.0065 58.6987 28.8798 57.7995 28.8798Z" fill="#005596"></path><path id="Vector_6" d="M65.9924 34.4535H64.0801V23.1928H65.9924V25.0168C66.8155 23.7121 68.1326 22.9648 69.6269 23.0535H69.8042V25.0548H69.5256C67.3347 25.0548 65.9797 26.6001 65.9797 29.0828V34.4535H65.9924Z" fill="#005596"></path><path id="Vector_7" d="M74.2749 34.6812C72.4133 34.6812 70.5264 33.4525 70.5264 31.1092V31.0205C70.5264 28.7405 72.1727 27.3218 74.8068 27.3218C75.9339 27.3218 76.7571 27.4992 77.4789 27.7018V27.3092C77.4789 25.6878 76.5418 24.8012 74.8322 24.8012C73.9203 24.8012 72.9832 25.0418 72.084 25.5105L71.8941 25.5992L71.2609 24.0032L71.4129 23.9272C72.3373 23.4838 73.4898 23.0278 74.9968 23.0278C76.3772 23.0278 77.4663 23.4078 78.2388 24.1678C78.9733 24.8898 79.3659 25.9538 79.3659 27.2458V34.4278H77.4663V33.2245C76.8457 33.9592 75.8453 34.6558 74.2623 34.6558M74.9968 28.8798C73.3885 28.8798 72.4386 29.6652 72.4386 30.9698V31.0332C72.4386 32.2238 73.3378 33.0598 74.6169 33.0598C75.4274 33.0598 76.1492 32.7938 76.6811 32.3252C77.213 31.8438 77.5043 31.1978 77.5043 30.4885V29.2598C76.7444 29.0065 75.8959 28.8798 74.9968 28.8798Z" fill="#005596"></path><path id="Vector_8" d="M85.5837 37.6324C84.0134 37.6324 82.557 37.2271 81.2653 36.4291L81.1133 36.3404L81.9112 34.7951L82.0885 34.9091C83.1269 35.5804 84.368 35.9478 85.5711 35.9478C87.6353 35.9478 88.7751 34.8584 88.7751 32.8824V31.8944C87.8506 33.1104 86.6855 33.7184 85.2925 33.7184C83.0256 33.7184 80.7334 31.8944 80.7334 28.4111V28.3351C80.7334 24.8391 83.0383 23.0024 85.3178 23.0024C86.6982 23.0024 87.8633 23.5978 88.7751 24.7631V23.2178H90.6874V32.8444C90.6874 34.3391 90.2568 35.5171 89.4083 36.3404C88.5218 37.2018 87.2427 37.6451 85.5837 37.6451M85.6471 24.7251C83.8741 24.7251 82.671 26.1691 82.671 28.3224C82.671 30.4758 83.8867 31.9704 85.6471 31.9704C87.2047 31.9704 88.8131 30.6278 88.8131 28.3731V28.3098C88.8131 25.9791 87.1794 24.7124 85.6471 24.7124" fill="#005596"></path><path id="Vector_9" d="M97.2725 34.6816C94.3091 34.6816 92.1562 32.2622 92.1562 28.9182V28.8169C92.1562 25.4349 94.1698 22.9902 96.9306 22.9902C99.6914 22.9902 101.578 25.2702 101.578 28.7916C101.578 28.9436 101.578 29.2476 101.553 29.4376V29.6022H94.1065C94.3218 31.6162 95.6009 32.9589 97.3359 32.9589C98.3743 32.9589 99.2481 32.5789 100.084 31.7556L100.223 31.6162L101.35 32.8576L101.224 32.9842C100.059 34.1496 98.8429 34.6689 97.2725 34.6689M94.1065 28.0569H99.6534C99.5141 26.4609 98.7416 24.6749 96.9306 24.6749C95.4236 24.6749 94.2965 26.0302 94.1065 28.0569Z" fill="#005596"></path><path id="Vector_10" d="M111.874 34.6687C109.645 34.6687 107.252 32.8827 107.252 28.9433V28.7407C107.252 24.966 109.582 22.99 111.874 22.99C113.242 22.99 114.394 23.598 115.294 24.8013V19H117.206V34.4533H115.294V32.794C114.382 34.0353 113.242 34.656 111.874 34.656M112.191 24.7253C110.405 24.7253 109.202 26.334 109.202 28.7407V28.9053C109.202 31.274 110.431 32.9333 112.191 32.9333C113.723 32.9333 115.357 31.5273 115.357 28.918V28.728C115.357 26.1187 113.723 24.7127 112.191 24.7127" fill="#005596"></path><path id="Vector_11" d="M123.791 34.6816C120.878 34.6816 118.675 32.1989 118.675 28.9182V28.7789C118.675 25.4856 120.878 22.9902 123.816 22.9902C126.754 22.9902 128.933 25.4729 128.933 28.7536V28.8802C128.933 32.1862 126.716 34.6816 123.791 34.6816ZM123.791 24.7256C121.955 24.7256 120.625 26.4229 120.625 28.7789V28.8802C120.625 31.1982 121.993 32.9462 123.804 32.9462C125.615 32.9462 126.982 31.2489 126.982 28.8929V28.7916C126.982 26.4736 125.602 24.7256 123.778 24.7256" fill="#005596"></path><path id="Vector_12" d="M134.936 34.6816C132.023 34.6816 129.819 32.1989 129.819 28.9182V28.7789C129.819 25.4856 132.023 22.9902 134.961 22.9902C137.899 22.9902 140.077 25.4729 140.077 28.7536V28.8802C140.077 32.1862 137.874 34.6816 134.936 34.6816ZM134.936 24.7256C133.099 24.7256 131.77 26.4229 131.77 28.7789V28.8802C131.77 31.1982 133.137 32.9462 134.948 32.9462C136.759 32.9462 138.127 31.2489 138.127 28.8929V28.7916C138.127 26.4736 136.747 24.7256 134.923 24.7256" fill="#005596"></path><path id="Vector_13" d="M143.472 34.4535H141.56V23.1928H143.472V25.0168C144.295 23.6995 145.625 22.9521 147.106 23.0408H147.284V25.0421H147.005C144.814 25.0421 143.459 26.5875 143.459 29.0701V34.4408L143.472 34.4535Z" fill="#005596"></path><path id="Vector_14" d="M151.918 34.6432C150.462 34.6432 148.955 34.0732 147.777 33.0725L147.65 32.9585L148.676 31.5525L148.828 31.6792C149.854 32.5279 150.905 32.9459 151.956 32.9459C153.083 32.9459 153.843 32.3505 153.843 31.4512C153.843 30.6152 153.071 30.1465 151.551 29.5385C150.006 28.8799 148.246 28.1325 148.246 26.2325C148.246 24.3325 149.74 23.0405 151.893 23.0405C153.121 23.0405 154.476 23.4839 155.502 24.2439L155.641 24.3452L154.692 25.8145L154.54 25.7005C153.628 25.0545 152.703 24.7125 151.855 24.7125C150.842 24.7125 150.12 25.2572 150.12 26.0425C150.12 26.8785 151.006 27.3092 152.475 27.9172C154.248 28.6772 155.705 29.4625 155.705 31.2865C155.705 33.2879 154.147 34.6432 151.918 34.6432Z" fill="#005596"></path><path id="Vector_15" d="M76.4022 0.417969H71.9824V17.3786H76.4022V0.417969Z" fill="#005596"></path><path id="Vector_16" d="M63.4852 0.405273H59.0654V17.3659H70.0832V13.5659H63.4852V0.405273Z" fill="#005596"></path><path id="Vector_17" d="M49.6688 11.3621H52.7588C52.4928 12.9074 51.0491 13.9208 48.8709 13.9208C46.0215 13.9208 44.9324 11.4254 44.9324 8.89211C44.9324 6.35878 46.0215 3.85078 48.8709 3.85078C50.6692 3.85078 52.0496 4.72478 52.2142 6.18145H56.634C56.2414 1.90011 52.4675 0.0507812 48.9469 0.0507812C43.7926 0.0507812 40.4873 3.96478 40.4873 8.89211C40.4873 13.8194 43.7926 17.7208 48.9469 17.7208C50.4666 17.7208 52.5308 17.1508 53.6706 15.5168L53.9366 17.3661H56.786V8.08145H49.6561V11.3621H49.6688Z" fill="#005596"></path><path id="Vector_18" d="M149.12 13.5152V0.354492H144.7V17.3152H155.718V13.5152H149.12Z" fill="#005596"></path><path id="Vector_19" d="M118.548 7.7138H114.838V3.88846H118.358C119.599 3.88846 120.587 4.45846 120.587 5.71246C120.587 6.96646 119.878 7.70113 118.548 7.70113M122.348 9.4238V9.37313C124.146 8.68913 125.007 6.9538 125.007 5.11713C125.007 1.69713 122.044 0.341797 119.068 0.341797H110.418V17.3025H114.838V11.1211H118.181C120.271 11.1211 120.537 12.8818 120.651 14.5918C120.727 15.0985 120.765 16.7071 121.144 17.3025H125.514C124.918 16.6311 124.868 14.2118 124.804 13.4771C124.69 11.8685 124.12 9.86713 122.335 9.41113" fill="#005596"></path><path id="Vector_20" d="M85.1031 13.5152H83.0135V4.15449H85.1031C88.1425 4.15449 89.7761 5.62383 89.7761 8.73983C89.7761 12.1345 88.4464 13.4392 85.1031 13.5152ZM85.8883 0.354492H78.5938V17.3152H85.8883C91.0425 17.3152 94.1959 14.3258 94.1959 8.76516C94.1959 3.52116 91.0805 0.354492 85.8883 0.354492Z" fill="#005596"></path><path id="Vector_21" d="M134.556 13.87C131.706 13.87 130.617 11.3747 130.617 8.84133C130.617 6.308 131.706 3.8 134.556 3.8C137.405 3.8 138.494 6.29533 138.494 8.84133C138.494 11.3873 137.405 13.87 134.556 13.87ZM134.556 0C129.237 0 126.197 3.914 126.197 8.84133C126.197 13.7687 129.237 17.67 134.556 17.67C139.874 17.67 142.914 13.7433 142.914 8.84133C142.914 3.93933 139.874 0 134.556 0Z" fill="#005596"></path><path id="Vector_22" d="M108.594 13.5152H100.211V10.2852H106.999V6.86516H100.211V3.88849H108.594V0.354492H95.791V17.3152H108.594V13.5152Z" fill="#005596"></path><path id="Vector_23" d="M155.414 2.85006C155.414 1.30472 156.655 0.0253906 158.238 0.0253906C159.821 0.0253906 161.037 1.29206 161.037 2.82472C161.037 4.37006 159.796 5.64939 158.213 5.64939C156.63 5.64939 155.414 4.38272 155.414 2.85006ZM160.708 2.83739C160.708 1.44406 159.644 0.329391 158.225 0.329391C156.807 0.329391 155.731 1.45672 155.731 2.83739C155.731 4.23072 156.794 5.33272 158.213 5.33272C159.631 5.33272 160.708 4.20539 160.708 2.83739ZM157.06 1.26672H158.39C158.795 1.26672 159.099 1.38072 159.315 1.59606C159.479 1.76072 159.568 1.98872 159.568 2.25472C159.568 2.74872 159.302 3.05272 158.922 3.19206L159.657 4.26872H158.884L158.251 3.30606H157.732V4.26872H157.073V1.26672H157.06ZM158.39 2.72339C158.719 2.72339 158.897 2.54606 158.897 2.29272C158.897 1.98872 158.694 1.83672 158.365 1.83672H157.719V2.71072H158.377L158.39 2.72339Z" fill="#005596"></path></g></g></g></g><defs><linearGradient id="paint0_linear_15510_3930" x1="1.03576" y1="-1.10591" x2="38.1433" y2="35.994" gradientUnits="userSpaceOnUse"><stop stop-color="#005596"></stop><stop offset="0.32" stop-color="#004B88"></stop><stop offset="0.93" stop-color="#003263"></stop><stop offset="1" stop-color="#00305F"></stop></linearGradient><clipPath id="clip0_15510_3930"><rect width="161.087" height="38" fill="white"></rect></clipPath></defs></svg>