<svg xmlns="http://www.w3.org/2000/svg" viewBox="0 0 493 94"><path fill="#fff" d="M487.7 12.6c-3 0-5.3-2.3-5.3-5.3 0-2.9 2.4-5.2 5.3-5.2 3 0 5.3 2.3 5.3 5.2 0 3-2.3 5.3-5.3 5.3zm-4-5.3c0 2.3 1.7 4.1 4 4.1s3.9-1.8 3.9-4.1-1.7-4.2-4-4.2c-2.2.1-3.9 2-3.9 4.2zm5.2.2c.5.2.8.6.9 1.3.2.8.3 1.1.4 1.3h-1.3c-.2-.2-.3-.7-.4-1.3-.1-.6-.4-.8-1.1-.8h-.6v2.1h-1.2V4.9c.5-.1 1.1-.2 2-.2 1 0 1.4.2 1.8.4.3.2.5.6.5 1.1.1.6-.4 1-1 1.3zm-1.3-1.9c-.3 0-.5 0-.7.1v1.5h.6c.7 0 1.2-.2 1.2-.8 0-.5-.4-.8-1.1-.8zm-17.2 73.7c0-2.7-1.2-4.1-3.4-4.1s-3.8 1.7-3.8 4.3v9.9h-2.8V73h2.8v1.9c1.1-1.5 2.6-2.2 4.5-2.2 3.4 0 5.5 2.3 5.5 6v10.6h-2.8v-10zM437.1 1.2h14.4v43h21.4v12.4h-35.8V1.2zm-3 88.4c-2.8 0-4.3-1.5-4.3-4.2v-9.9h-1.9V73h1.9v-4.6h2.8V73h4.2v2.5h-4.2V85c0 1.4.6 2 2 2 .6 0 1.1-.1 1.8-.4l.4-.2v2.5l-.2.1c-.8.4-1.7.6-2.5.6zm-30-31.9c-17.3 0-27.2-12.8-27.2-28.9.1-16 10-28.8 27.2-28.8 17.3 0 27.2 12.8 27.2 28.9 0 16-9.9 28.8-27.2 28.8zm0-45.3c-9.3 0-12.8 8.1-12.8 16.5 0 8.3 3.5 16.4 12.8 16.4s12.8-8.1 12.8-16.4c0-8.3-3.5-16.5-12.8-16.5zm-31.6 31.7c.2 2.4.4 10.3 2.3 12.5h-14.2c-1.2-1.9-1.4-7.2-1.6-8.8-.4-5.6-1.2-11.3-8-11.3h-10.9v20.2h-14.4V1.2h28.1c9.6 0 19.3 4.4 19.3 15.6 0 6-2.8 11.6-8.6 13.9v.2c5.8 1.4 7.6 7.9 8 13.2zm-21-31.4h-11.4v12.5h12c4.3 0 6.6-2.3 6.6-6.5.1-4.1-3.2-6-7.2-6zm-29.7 74.2c-1.3 1.8-3 2.7-4.9 2.7-3.2 0-6.7-2.6-6.7-8.3V81c0-5.5 3.4-8.4 6.7-8.4 2 0 3.6.9 4.9 2.6v-8.4h2.8v22.5h-2.8v-2.4zm.1-5.6V81c0-3.8-2.4-5.8-4.6-5.8-2.6 0-4.3 2.3-4.3 5.8v.2c0 3.5 1.8 5.9 4.3 5.9 2.2 0 4.6-2 4.6-5.8zM278.2 1.2h41.6v11.6h-27.3v9.7h22.1v11.2h-22.1v10.6h27.3v12.4h-41.6V1.2zM246 56.6h-23.7V1.2H246c16.9 0 27 10.3 27 27.5 0 18.1-10.3 27.9-27 27.9zm-2.6-43h-6.8v30.6h6.8c10.9-.2 15.2-4.5 15.2-15.6 0-10.2-5.3-15-15.2-15zM233.1 81v.2c0 4.8-3.2 8.4-7.4 8.4s-7.4-3.6-7.4-8.4V81c0-4.8 3.2-8.4 7.4-8.4 4.2.1 7.4 3.7 7.4 8.4zm-12.1.1v.2c0 3.4 2 5.9 4.6 5.9 2.7 0 4.6-2.5 4.6-5.9v-.2c0-3.4-2-5.9-4.6-5.9-2.6 0-4.6 2.5-4.6 5.9zm-7.7 5.8c-1.3 1.8-3 2.7-4.9 2.7-3.2 0-6.7-2.6-6.7-8.3V81c0-5.5 3.4-8.4 6.7-8.4 2 0 3.6.9 4.9 2.6v-8.4h2.8v22.5h-2.8v-2.4zm.1-5.6V81c0-3.8-2.4-5.8-4.6-5.8-2.6 0-4.3 2.3-4.3 5.8v.2c0 3.5 1.8 5.9 4.3 5.9 2.2 0 4.6-2 4.6-5.8zm-12.6-80h14.3v55.4h-14.3V1.3zm-42 0h14.3v43h21.4v12.4h-35.8V1.3zm2.5 77.6v10.5h-2.7v-1.8c-.9 1.1-2.3 2.1-4.6 2.1-2.7 0-5.4-1.8-5.4-5.2v-.1c0-3.3 2.4-5.4 6.2-5.4 1.6 0 2.8.3 3.9.5v-.6c0-2.4-1.4-3.6-3.8-3.6-1.3 0-2.7.3-4 1l-.3.1-.9-2.3.2-.1c1.3-.6 3-1.3 5.2-1.3 2 0 3.6.6 4.7 1.7 1 1.1 1.5 2.6 1.5 4.5zm-2.7 2.9c-1.1-.4-2.3-.6-3.6-.6-2.3 0-3.7 1.1-3.7 3v.1c0 1.7 1.3 2.9 3.2 2.9 1.2 0 2.2-.4 3-1.1.8-.7 1.2-1.6 1.2-2.7v-1.6zm-17.3-31.1c-3.7 5.3-10.4 7.2-15.4 7.2-16.7 0-27.5-12.8-27.5-28.9C98.4 12.9 109.1.1 125.9.1c11.4 0 23.7 6 24.9 20h-14.3c-.5-4.7-5-7.6-10.9-7.6-9.3 0-12.8 8.1-12.8 16.5 0 8.3 3.5 16.4 12.8 16.4 7.1 0 11.8-3.3 12.7-8.4h-10V26.4h23.2v30.3h-9.3l-.9-6zM0 .7h60.6c-9.4 3.7-20.3 11.1-30.5 21.4C10.4 42 1.2 64.9 9.5 73.2c7.8 7.8 28.3 0 47.1-17.4l29.9-13.4v7.9L29.9 75.7v1.6l56.6-25.4v7.9L29.9 85.2v1.6l56.6-25.4v27.7H0V.7zm29.8 61.7L66 46.1c1.8-2 3.4-4.1 4.9-6.2l15.5-7v7.9L29.9 66.3l-.1-3.9zm0-9.5l46.4-20.8c1.1-1.8 2-3.5 2.9-5.2l7.4-3.3v7.9L29.9 56.8l-.1-3.9zm0-9.5L82 20c2.8-8.2 2.7-15-1.1-18.8l-.5-.5h6.1v21.2L29.9 47.3l-.1-3.9zm84.1 29.3c2 0 3.7.9 5 2.6V73h2.8v14c0 2.2-.6 3.9-1.8 5.1-1.3 1.3-3.1 1.9-5.5 1.9-2.3 0-4.4-.6-6.3-1.7l-.2-.1 1.2-2.3.3.2c1.5 1 3.3 1.5 5 1.5 3 0 4.6-1.6 4.6-4.5v-1.4c-1.3 1.8-3 2.7-5 2.7-3.3 0-6.6-2.7-6.6-7.7v-.1c-.1-5.3 3.2-7.9 6.5-7.9zm.5 13c2.2 0 4.6-2 4.6-5.2v-.1c0-3.4-2.4-5.2-4.6-5.2-2.6 0-4.3 2.1-4.3 5.2 0 3.2 1.8 5.3 4.3 5.3zm19.3-6.2v-.6c0-2.4-1.4-3.6-3.8-3.6-1.3 0-2.7.3-4 1l-.3.1-.9-2.3.2-.1c1.3-.6 3-1.3 5.2-1.3 2 0 3.6.6 4.7 1.7s1.6 2.6 1.6 4.5v10.5h-2.7v-1.8c-.9 1.1-2.3 2.1-4.6 2.1-2.7 0-5.4-1.8-5.4-5.2v-.1c0-3.3 2.4-5.4 6.2-5.4 1.6 0 2.8.2 3.8.5zm-7.3 4.9c0 1.7 1.3 2.9 3.2 2.9 1.2 0 2.2-.4 3-1.1.8-.7 1.2-1.6 1.2-2.7v-1.8c-1.1-.4-2.3-.6-3.6-.6-2.4.1-3.8 1.3-3.8 3.3zm15.6-8.8c1.2-1.9 3.1-3 5.3-2.9h.3v2.9h-.4c-3.2 0-5.1 2.2-5.1 5.9v7.8h-2.8V73h2.8v2.6zm27.9-2.9c2 0 3.7.9 5 2.6V73h2.8v14c0 2.2-.6 3.9-1.8 5.1-1.3 1.3-3.1 1.9-5.5 1.9-2.3 0-4.4-.6-6.3-1.7l-.2-.1 1.2-2.3.3.2c1.5 1 3.3 1.5 5 1.5 3 0 4.6-1.6 4.6-4.5v-1.4c-1.3 1.8-3 2.7-5 2.7-3.3 0-6.6-2.7-6.6-7.7v-.1c-.1-5.3 3.2-7.9 6.5-7.9zm.5 13c2.2 0 4.6-2 4.6-5.2v-.1c0-3.4-2.4-5.2-4.6-5.2-2.6 0-4.3 2.1-4.3 5.2 0 3.2 1.8 5.3 4.3 5.3zm16.3-13c4.1 0 6.7 3.3 6.7 8.4v1.1h-10.8c.3 2.9 2.2 4.9 4.7 4.9 1.5 0 2.8-.6 4-1.7l.2-.2 1.6 1.8-.2.2c-1.7 1.7-3.5 2.4-5.7 2.4-4.3 0-7.4-3.5-7.4-8.4V81c0-4.8 2.9-8.3 6.9-8.3zm4 7.3c-.2-2.3-1.3-4.9-3.9-4.9-2.2 0-3.8 2-4.1 4.9h8zm58.5 1v.2c0 4.8-3.2 8.4-7.4 8.4s-7.4-3.6-7.4-8.4V81c0-4.8 3.2-8.4 7.4-8.4 4.2.1 7.4 3.7 7.4 8.4zm-12 .1v.2c0 3.4 2 5.9 4.6 5.9 2.7 0 4.6-2.5 4.6-5.9v-.2c0-3.4-2-5.9-4.6-5.9-2.7 0-4.6 2.5-4.6 5.9zm16.9-5.5c1.2-1.9 3.1-3 5.3-2.9h.3v2.9h-.4c-3.2 0-5.1 2.2-5.1 5.9v7.8h-2.8V73h2.8v2.6zm7.8 9.7c1.5 1.2 3 1.8 4.5 1.8 1.6 0 2.7-.9 2.7-2.2 0-1.2-1.1-1.9-3.3-2.8-2.2-1-4.8-2-4.8-4.8s2.2-4.7 5.3-4.7c1.8 0 3.7.7 5.2 1.8l.2.2-1.4 2.1-.2-.2c-1.3-.9-2.7-1.4-3.9-1.4-1.5 0-2.5.8-2.5 1.9 0 1.2 1.3 1.8 3.4 2.7 2.6 1.1 4.7 2.2 4.7 4.9 0 2.9-2.3 4.9-5.5 4.9-2.1 0-4.3-.8-6-2.3l-.2-.2 1.5-2 .3.3zm28-5.8v-.6c0-2.4-1.4-3.6-3.8-3.6-1.3 0-2.7.3-4 1l-.3.1-.9-2.3.2-.1c1.3-.6 3-1.3 5.2-1.3 2 0 3.6.6 4.7 1.7s1.6 2.6 1.6 4.5v10.5h-2.7v-1.8c-.9 1.1-2.3 2.1-4.6 2.1-2.7 0-5.4-1.8-5.4-5.2v-.1c0-3.3 2.4-5.4 6.2-5.4 1.6 0 2.8.2 3.8.5zm-7.3 4.9c0 1.7 1.3 2.9 3.2 2.9 1.2 0 2.2-.4 3-1.1.8-.7 1.2-1.6 1.2-2.7v-1.8c-1.1-.4-2.3-.6-3.6-.6-2.4.1-3.8 1.3-3.8 3.3zm15.6-9.5c1.1-1.5 2.6-2.2 4.5-2.2 3.4 0 5.5 2.3 5.5 6v10.6h-2.8v-10c0-2.7-1.2-4.1-3.4-4.1s-3.8 1.7-3.8 4.3v9.9h-2.8V73h2.8v1.9zm45.4 4.6v-.6c0-2.4-1.4-3.6-3.8-3.6-1.3 0-2.7.3-4 1l-.3.1-.9-2.3.2-.1c1.3-.6 3-1.3 5.2-1.3 2 0 3.6.6 4.7 1.7 1.1 1 1.6 2.6 1.6 4.5v10.5h-2.7v-1.8c-.9 1.1-2.3 2.1-4.6 2.1-2.7 0-5.4-1.8-5.4-5.2v-.1c0-3.3 2.4-5.4 6.2-5.4 1.5 0 2.7.2 3.8.5zm-7.3 4.9c0 1.7 1.3 2.9 3.2 2.9 1.2 0 2.2-.4 3-1.1.8-.7 1.2-1.6 1.2-2.7v-1.8c-1.1-.4-2.3-.6-3.6-.6-2.4.1-3.8 1.3-3.8 3.3zm15.3-1.4c0 2.7 1.2 4.1 3.4 4.1s3.8-1.7 3.8-4.2V73h2.8v16.4h-2.8v-1.9c-1.1 1.5-2.6 2.2-4.5 2.2-3.4 0-5.5-2.3-5.5-6V73h2.8v10zM366 68.3h2.8V73h4.2v2.5h-4.2V85c0 1.4.6 2 2 2 .6 0 1.1-.1 1.8-.4l.4-.2v2.5l-.2.1c-.8.4-1.6.6-2.5.6-2.8 0-4.3-1.5-4.3-4.2v-9.9h-2V73h1.9v-4.7zM388.5 81v.2c0 4.8-3.2 8.4-7.4 8.4s-7.4-3.6-7.4-8.4V81c0-4.8 3.2-8.4 7.4-8.4 4.2.1 7.4 3.7 7.4 8.4zm-12 .1v.2c0 3.4 2 5.9 4.6 5.9 2.7 0 4.6-2.5 4.6-5.9v-.2c0-3.4-2-5.9-4.6-5.9-2.7 0-4.6 2.5-4.6 5.9zm16.3-6.2c.8-1.1 2.1-2.2 4.2-2.2 2 0 3.6.9 4.5 2.6 1.3-1.8 2.9-2.6 4.9-2.6 3.3 0 5.4 2.3 5.4 6.1v10.6H409v-10c0-2.7-1.1-4.1-3.2-4.1s-3.5 1.7-3.5 4.2v9.9h-2.8V79.3c0-2.6-1.1-4.1-3.2-4.1-2 0-3.5 1.8-3.5 4.3v9.9H390V73h2.8v1.9zm30.9 4.6v-.6c0-2.4-1.4-3.6-3.8-3.6-1.3 0-2.7.3-4 1l-.3.1-.9-2.3.2-.1c1.3-.6 3-1.3 5.2-1.3 2 0 3.6.6 4.7 1.7 1.1 1 1.6 2.6 1.6 4.5v10.5h-2.7v-1.8c-.9 1.1-2.3 2.1-4.6 2.1-2.7 0-5.4-1.8-5.4-5.2v-.1c0-3.3 2.4-5.4 6.2-5.4 1.6 0 2.8.2 3.8.5zm-7.3 4.9c0 1.7 1.3 2.9 3.2 2.9 1.2 0 2.2-.4 3-1.1.8-.7 1.2-1.6 1.2-2.7v-1.8c-1.1-.4-2.3-.6-3.6-.6-2.4.1-3.8 1.3-3.8 3.3zm25.4-14.1h-3v-3.1h3v3.1zm-.1 19h-2.8V73h2.8v16.3zm17.2-8.3v.2c0 4.8-3.2 8.4-7.4 8.4s-7.4-3.6-7.4-8.4V81c0-4.8 3.2-8.4 7.4-8.4 4.2.1 7.4 3.7 7.4 8.4zm-12 .1v.2c0 3.4 2 5.9 4.6 5.9 2.7 0 4.6-2.5 4.6-5.9v-.2c0-3.4-2-5.9-4.6-5.9-2.7 0-4.6 2.5-4.6 5.9z"/></svg>