<svg xmlns="http://www.w3.org/2000/svg" width="162" height="38" viewBox="0 0 162 38" fill="none"><g id="Logo" clip-path="url(#clip0_16372_1409)"><g id="Graphic"><mask id="mask0_16372_1409" style="mask-type:luminance" maskUnits="userSpaceOnUse" x="0" y="0" width="37" height="38"><g id="clippath"><path id="Vector" d="M30.1785 16.8462C29.5326 17.7202 28.8234 18.5942 28.0762 19.4555L12.7021 26.3208V27.9675L36.7891 17.2135V13.8822L30.1785 16.8335V16.8462ZM33.6611 11.2855C33.2938 12.0075 32.8886 12.7548 32.4453 13.5022L12.7147 22.3182V23.9648L36.8018 13.1982V9.86684L33.6611 11.2728V11.2855ZM0 0.214844V37.6195H36.7891V25.8902L12.7021 36.6568V35.9728L36.7891 25.2188V21.8875L12.7021 32.6542V31.9702L36.7891 21.2162V17.8848L24.0871 23.5595C16.096 30.9315 7.38315 34.2248 4.06517 30.9062C0.519227 27.3722 4.44509 17.6822 12.8287 9.25884C17.1471 4.93951 21.8075 1.77284 25.8094 0.214844H0ZM34.193 0.214844C34.269 0.278177 34.345 0.34151 34.4083 0.41751C36.0293 2.02618 36.0926 4.92684 34.8768 8.39751L12.6894 18.3155V19.9622L36.7891 9.19551V0.214844H34.193Z" fill="white"></path></g></mask><g mask="url(#mask0_16372_1409)"><g id="Group"><path id="Vector_2" d="M18.399 -18.1749L-18.7009 18.9326L18.399 56.0402L55.4989 18.9326L18.399 -18.1749Z" fill="white"></path></g></g></g><g id="Text"><mask id="mask1_16372_1409" style="mask-type:luminance" maskUnits="userSpaceOnUse" x="0" y="0" width="163" height="38"><g id="clippath-1"><path id="Vector_3" d="M162.1 0H0V38H162.1V0Z" fill="white"></path></g></mask><g mask="url(#mask1_16372_1409)"><g id="Group_2"><path id="Vector_4" d="M46.8823 37.6329C45.312 37.6329 43.8556 37.2276 42.5639 36.4296L42.4119 36.3409L43.2097 34.7956L43.387 34.9096C44.4255 35.5809 45.6666 35.9483 46.8697 35.9483C48.9339 35.9483 50.0737 34.8589 50.0737 32.8829V31.8949C49.1492 33.1109 47.9841 33.7189 46.5911 33.7189C44.3242 33.7189 42.032 31.8949 42.032 28.4116V28.3356C42.032 24.8396 44.3368 23.0029 46.6164 23.0029C47.9968 23.0029 49.1619 23.5983 50.0737 24.7636V23.2183H51.9859V32.8449C51.9859 34.3396 51.5554 35.5176 50.7195 36.3409C49.8331 37.2023 48.5413 37.6456 46.895 37.6456M46.9456 24.7256C45.1727 24.7256 43.9696 26.1696 43.9696 28.3229C43.9696 30.4763 45.1853 31.9709 46.9456 31.9709C48.5033 31.9709 50.1117 30.6283 50.1117 28.3736V28.3103C50.1117 25.9796 48.478 24.7129 46.9456 24.7129" fill="white"></path><path id="Vector_5" d="M57.0769 34.6817C55.2153 34.6817 53.3284 33.453 53.3284 31.1097V31.021C53.3284 28.741 54.9747 27.3223 57.6088 27.3223C58.7359 27.3223 59.5591 27.4997 60.2809 27.7023V27.3097C60.2809 25.6883 59.3438 24.8017 57.6341 24.8017C56.7223 24.8017 55.7852 25.0423 54.886 25.511L54.6961 25.5997L54.0629 24.0037L54.2275 23.9277C55.152 23.4843 56.3044 23.0283 57.8115 23.0283C59.1918 23.0283 60.2809 23.4083 61.0661 24.1683C61.8006 24.8903 62.1932 25.9543 62.1932 27.2463V34.4283H60.2936V33.225C59.6731 33.9597 58.6726 34.6563 57.0896 34.6563M57.7988 28.8803C56.1904 28.8803 55.2406 29.6657 55.2406 30.9703V31.0337C55.2406 32.2243 56.1398 33.0603 57.4189 33.0603C58.242 33.0603 58.9512 32.7943 59.4831 32.3257C60.015 31.8443 60.3063 31.1983 60.3063 30.489V29.2603C59.5464 29.007 58.6979 28.8803 57.7988 28.8803Z" fill="white"></path><path id="Vector_6" d="M65.9926 34.453H64.0803V23.1923H65.9926V25.0163C66.8158 23.7117 68.1328 22.9643 69.6272 23.053H69.8045V25.0543H69.5259C67.335 25.0543 65.9799 26.5997 65.9799 29.0823V34.453H65.9926Z" fill="white"></path><path id="Vector_7" d="M74.2747 34.6817C72.4131 34.6817 70.5261 33.453 70.5261 31.1097V31.021C70.5261 28.741 72.1725 27.3223 74.8066 27.3223C75.9337 27.3223 76.7568 27.4997 77.4787 27.7023V27.3097C77.4787 25.6883 76.5416 24.8017 74.8319 24.8017C73.9201 24.8017 72.983 25.0423 72.0838 25.511L71.8938 25.5997L71.2606 24.0037L71.4126 23.9277C72.3371 23.4843 73.4895 23.0283 74.9965 23.0283C76.3769 23.0283 77.466 23.4083 78.2385 24.1683C78.9731 24.8903 79.3656 25.9543 79.3656 27.2463V34.4283H77.466V33.225C76.8455 33.9597 75.845 34.6563 74.262 34.6563M74.9965 28.8803C73.3882 28.8803 72.4384 29.6657 72.4384 30.9703V31.0337C72.4384 32.2243 73.3375 33.0603 74.6166 33.0603C75.4271 33.0603 76.149 32.7943 76.6809 32.3257C77.2128 31.8443 77.504 31.1983 77.504 30.489V29.2603C76.7442 29.007 75.8957 28.8803 74.9965 28.8803Z" fill="white"></path><path id="Vector_8" d="M85.5837 37.6329C84.0134 37.6329 82.557 37.2276 81.2653 36.4296L81.1133 36.3409L81.9112 34.7956L82.0885 34.9096C83.1269 35.5809 84.368 35.9483 85.5711 35.9483C87.6353 35.9483 88.7751 34.8589 88.7751 32.8829V31.8949C87.8506 33.1109 86.6855 33.7189 85.2925 33.7189C83.0256 33.7189 80.7334 31.8949 80.7334 28.4116V28.3356C80.7334 24.8396 83.0383 23.0029 85.3178 23.0029C86.6982 23.0029 87.8633 23.5983 88.7751 24.7636V23.2183H90.6874V32.8449C90.6874 34.3396 90.2568 35.5176 89.4083 36.3409C88.5218 37.2023 87.2427 37.6456 85.5837 37.6456M85.6471 24.7256C83.8741 24.7256 82.671 26.1696 82.671 28.3229C82.671 30.4763 83.8867 31.9709 85.6471 31.9709C87.2047 31.9709 88.8131 30.6283 88.8131 28.3736V28.3103C88.8131 25.9796 87.1794 24.7129 85.6471 24.7129" fill="white"></path><path id="Vector_9" d="M97.2728 34.6816C94.3094 34.6816 92.1565 32.2622 92.1565 28.9182V28.8169C92.1565 25.4349 94.1701 22.9902 96.9309 22.9902C99.6916 22.9902 101.579 25.2702 101.579 28.7916C101.579 28.9436 101.579 29.2476 101.553 29.4376V29.6022H94.1068C94.3221 31.6162 95.6011 32.9589 97.3361 32.9589C98.3746 32.9589 99.2484 32.5789 100.084 31.7556L100.224 31.6162L101.351 32.8576L101.224 32.9842C100.059 34.1496 98.8431 34.6689 97.2728 34.6689M94.1068 28.0569H99.6536C99.5143 26.4609 98.7418 24.6749 96.9309 24.6749C95.4238 24.6749 94.2967 26.0302 94.1068 28.0569Z" fill="white"></path><path id="Vector_10" d="M111.874 34.6687C109.645 34.6687 107.252 32.8827 107.252 28.9433V28.7407C107.252 24.966 109.582 22.99 111.874 22.99C113.242 22.99 114.394 23.598 115.294 24.8013V19H117.206V34.4533H115.294V32.794C114.382 34.0353 113.242 34.656 111.874 34.656M112.191 24.7253C110.405 24.7253 109.202 26.334 109.202 28.7407V28.9053C109.202 31.274 110.431 32.9333 112.191 32.9333C113.723 32.9333 115.357 31.5273 115.357 28.918V28.728C115.357 26.1187 113.723 24.7127 112.191 24.7127" fill="white"></path><path id="Vector_11" d="M123.791 34.6816C120.879 34.6816 118.675 32.1989 118.675 28.9182V28.7789C118.675 25.4856 120.879 22.9902 123.817 22.9902C126.755 22.9902 128.933 25.4729 128.933 28.7536V28.8802C128.933 32.1862 126.717 34.6816 123.791 34.6816ZM123.791 24.7256C121.955 24.7256 120.625 26.4229 120.625 28.7789V28.8802C120.625 31.1982 121.993 32.9462 123.804 32.9462C125.615 32.9462 126.983 31.2489 126.983 28.8929V28.7916C126.983 26.4736 125.602 24.7256 123.779 24.7256" fill="white"></path><path id="Vector_12" d="M134.936 34.6816C132.023 34.6816 129.819 32.1989 129.819 28.9182V28.7789C129.819 25.4856 132.023 22.9902 134.961 22.9902C137.899 22.9902 140.077 25.4729 140.077 28.7536V28.8802C140.077 32.1862 137.874 34.6816 134.936 34.6816ZM134.936 24.7256C133.099 24.7256 131.77 26.4229 131.77 28.7789V28.8802C131.77 31.1982 133.137 32.9462 134.948 32.9462C136.759 32.9462 138.127 31.2489 138.127 28.8929V28.7916C138.127 26.4736 136.747 24.7256 134.923 24.7256" fill="white"></path><path id="Vector_13" d="M143.471 34.453H141.559V23.1923H143.471V25.0163C144.295 23.699 145.624 22.9516 147.106 23.0403H147.283V25.0416H147.005C144.814 25.0416 143.459 26.587 143.459 29.0696V34.4403L143.471 34.453Z" fill="white"></path><path id="Vector_14" d="M151.918 34.6437C150.462 34.6437 148.955 34.0737 147.777 33.073L147.65 32.959L148.676 31.553L148.828 31.6797C149.854 32.5283 150.905 32.9463 151.956 32.9463C153.083 32.9463 153.843 32.351 153.843 31.4517C153.843 30.6157 153.071 30.147 151.551 29.539C150.006 28.8803 148.246 28.133 148.246 26.233C148.246 24.333 149.74 23.041 151.893 23.041C153.121 23.041 154.476 23.4843 155.502 24.2443L155.641 24.3457L154.692 25.815L154.54 25.701C153.628 25.055 152.703 24.713 151.855 24.713C150.842 24.713 150.12 25.2577 150.12 26.043C150.12 26.879 151.006 27.3097 152.475 27.9177C154.248 28.6777 155.705 29.463 155.705 31.287C155.705 33.2883 154.147 34.6437 151.918 34.6437Z" fill="white"></path><path id="Vector_15" d="M76.4024 0.417969H71.9827V17.3786H76.4024V0.417969Z" fill="white"></path><path id="Vector_16" d="M63.4849 0.405273H59.0652V17.3659H70.0829V13.5659H63.4849V0.405273Z" fill="white"></path><path id="Vector_17" d="M49.6685 11.3621H52.7585C52.4926 12.9074 51.0489 13.9208 48.8707 13.9208C46.0213 13.9208 44.9322 11.4254 44.9322 8.89211C44.9322 6.35878 46.0213 3.85078 48.8707 3.85078C50.669 3.85078 52.0494 4.72478 52.214 6.18145H56.6338C56.2412 1.90011 52.4673 0.0507812 48.9467 0.0507812C43.7924 0.0507812 40.4871 3.96478 40.4871 8.89211C40.4871 13.8194 43.7924 17.7208 48.9467 17.7208C50.4664 17.7208 52.5306 17.1508 53.6704 15.5168L53.9363 17.3661H56.7857V8.08145H49.6558V11.3621H49.6685Z" fill="white"></path><path id="Vector_18" d="M149.119 13.5152V0.354492H144.7V17.3152H155.717V13.5152H149.119Z" fill="white"></path><path id="Vector_19" d="M118.548 7.7138H114.838V3.88846H118.358C119.599 3.88846 120.587 4.45846 120.587 5.71246C120.587 6.96646 119.878 7.70113 118.548 7.70113M122.348 9.4238V9.37313C124.146 8.68913 125.007 6.9538 125.007 5.11713C125.007 1.69713 122.044 0.341797 119.068 0.341797H110.418V17.3025H114.838V11.1211H118.181C120.271 11.1211 120.537 12.8818 120.651 14.5918C120.727 15.0985 120.765 16.7071 121.144 17.3025H125.514C124.918 16.6311 124.868 14.2118 124.804 13.4771C124.69 11.8685 124.12 9.86713 122.335 9.41113" fill="white"></path><path id="Vector_20" d="M85.1026 13.5152H83.013V4.15449H85.1026C88.142 4.15449 89.7756 5.62383 89.7756 8.73983C89.7756 12.1345 88.4459 13.4392 85.1026 13.5152ZM85.8878 0.354492H78.5933V17.3152H85.8878C91.042 17.3152 94.1954 14.3258 94.1954 8.76516C94.1954 3.52116 91.08 0.354492 85.8878 0.354492Z" fill="white"></path><path id="Vector_21" d="M134.556 13.87C131.706 13.87 130.617 11.3747 130.617 8.84133C130.617 6.308 131.706 3.8 134.556 3.8C137.405 3.8 138.494 6.29533 138.494 8.84133C138.494 11.3873 137.405 13.87 134.556 13.87ZM134.556 0C129.237 0 126.198 3.914 126.198 8.84133C126.198 13.7687 129.237 17.67 134.556 17.67C139.875 17.67 142.914 13.7433 142.914 8.84133C142.914 3.93933 139.875 0 134.556 0Z" fill="white"></path><path id="Vector_22" d="M108.594 13.5152H100.211V10.2852H106.999V6.86516H100.211V3.88849H108.594V0.354492H95.791V17.3152H108.594V13.5152Z" fill="white"></path><path id="Vector_23" d="M155.414 2.85006C155.414 1.30472 156.655 0.0253906 158.238 0.0253906C159.821 0.0253906 161.036 1.29206 161.036 2.82472C161.036 4.37006 159.795 5.64939 158.212 5.64939C156.629 5.64939 155.414 4.38272 155.414 2.85006ZM160.707 2.83739C160.707 1.44406 159.643 0.329391 158.225 0.329391C156.807 0.329391 155.73 1.45672 155.73 2.83739C155.73 4.23072 156.794 5.33272 158.212 5.33272C159.631 5.33272 160.707 4.20539 160.707 2.83739ZM157.06 1.26672H158.39C158.795 1.26672 159.099 1.38072 159.314 1.59606C159.479 1.76072 159.567 1.98872 159.567 2.25472C159.567 2.74872 159.301 3.05272 158.922 3.19206L159.656 4.26872H158.884L158.25 3.30606H157.731V4.26872H157.073V1.26672H157.06ZM158.39 2.72339C158.719 2.72339 158.896 2.54606 158.896 2.29272C158.896 1.98872 158.694 1.83672 158.364 1.83672H157.718V2.71072H158.377L158.39 2.72339Z" fill="white"></path></g></g></g></g><defs><clipPath id="clip0_16372_1409"><rect width="161.087" height="38" fill="white"></rect></clipPath></defs></svg>